<svg xmlns="http://www.w3.org/2000/svg" fill="white" width="64" height="63" viewBox="0 0 64 63"><g><mask id="acceleration-mask-ico" class="specification-mask-1"><path d="M37.172 23.104v34.04H26.895v-26.56l10.277-7.48zm13.2-9.608v43.649H40.095V20.977l10.277-7.48zm13.2-9.607v53.256H53.294V11.369l10.278-7.48zm-39.6 28.822v24.434H13.695V40.192l10.277-7.48zm-13.39 9.746h.19v14.688H.496v-7.346l10.088-7.342zM.496 60.072h63.028V63H.495v-2.928z"></path><path d="M49.098 5.496L.721 40.306l-.313.225-.451-.626.313-.225L48.647 4.87l-2.07-2.876L55.368.51l-4.2 7.861z"></path></mask><rect x="0" y="0" width="100%" height="100%" mask="url(#acceleration-mask-ico)"></rect></g><g><mask id="acceleration-mask-ico-2" class="specification-mask-2"><path d="M37.172 23.104v34.04H26.895v-26.56l10.277-7.48zm13.2-9.608v43.649H40.095V20.977l10.277-7.48zm13.2-9.607v53.256H53.294V11.369l10.278-7.48zm-39.6 28.822v24.434H13.695V40.192l10.277-7.48zm-13.39 9.746h.19v14.688H.496v-7.346l10.088-7.342zM.496 60.072h63.028V63H.495v-2.928z"></path><path d="M49.098 5.496L.721 40.306l-.313.225-.451-.626.313-.225L48.647 4.87l-2.07-2.876L55.368.51l-4.2 7.861z"></path></mask><rect class="specification-mask-ico-rect specification-mask-anim-right" x="0" y="0" width="100%" height="100%" mask="url(#acceleration-mask-ico-2)"></rect></g></svg>