<svg fill="gray" xmlns="http://www.w3.org/2000/svg" viewBox="0 0 44 46" id="icon-charging"><path d="M19.285 22.77a.782.782 0 0 0-.707-.447h-3.675l2.866-10.725a.782.782 0 0 0-1.36-.698L5.46 24.17a.779.779 0 0 0 .603 1.276h3.675L6.871 36.172a.78.78 0 0 0 .755.982.78.78 0 0 0 .604-.285l10.952-13.27a.778.778 0 0 0 .103-.828zM9.31 33.108l2.202-8.24a.78.78 0 0 0-.756-.983H7.72l7.61-9.222-2.201 8.24a.78.78 0 0 0 .755.982h3.036l-7.61 9.223zM15.086 0H6.034c-.416 0-.754.264-.754.59v2.359c0 .325.338.59.754.59h9.052c.416 0 .754-.265.754-.59V.589c0-.325-.338-.589-.754-.589zm-.755 2.359H6.79v-1.18h7.542v1.18z"></path><path d="M19.958 3.538H2.922A2.917 2.917 0 0 0 0 6.443v36.652A2.917 2.917 0 0 0 2.922 46h17.036a2.917 2.917 0 0 0 2.922-2.905V6.443a2.917 2.917 0 0 0-2.922-2.905zm1.397 39.557c0 .766-.627 1.389-1.397 1.389H2.922c-.77 0-1.397-.623-1.397-1.389V6.443c0-.765.626-1.388 1.397-1.388h17.036c.77 0 1.397.623 1.397 1.388v36.652zM31.68 0c-.97 0-1.76.992-1.76 2.212v5.897c0 .407.263.737.587.737h2.346c.324 0 .587-.33.587-.737V2.212C33.44.992 32.65 0 31.68 0zm.587 7.372h-1.174v-5.16c0-.407.264-.738.587-.738.323 0 .587.331.587.738v5.16zM38.72 0c-.97 0-1.76.992-1.76 2.212v5.897c0 .407.263.737.587.737h2.346c.324 0 .587-.33.587-.737V2.212C40.48.992 39.69 0 38.72 0zm.587 7.372h-1.174v-5.16c0-.407.264-.738.587-.738.323 0 .587.331.587.738v5.16z"></path><path d="M43.2 7.077h-16c-.442 0-.8.396-.8.885V11.5c0 .488.358.885.8.885h16c.442 0 .8-.397.8-.885V7.962c0-.489-.358-.885-.8-.885zm-.8 3.538H28V8.846h14.4v1.77z"></path><path d="M41.458 10.615H28.942a.77.77 0 0 0-.782.759v6.825c0 1.671 1.403 3.032 3.128 3.032h7.824c1.725 0 3.128-1.36 3.128-3.032v-6.825a.77.77 0 0 0-.782-.759zm-.782 7.584c0 .836-.701 1.515-1.563 1.515h-7.825c-.863 0-1.564-.68-1.564-1.515v-6.067h10.952v6.067z"></path><path d="M36.373 19.462h-2.346c-.324 0-.587.396-.587.884v1.77c0 1.463.79 2.653 1.76 2.653s1.76-1.19 1.76-2.654v-1.769c0-.488-.263-.884-.587-.884zm-.586 2.653c0 .488-.264.885-.587.885-.323 0-.587-.397-.587-.885v-.884h1.174v.884z"></path><path d="M36.219 23.197c-.41 0-.741.352-.741.786v17.3c0 1.734-1.33 3.144-2.964 3.144-1.635 0-2.965-1.41-2.965-3.145V23.983c0-3.469-2.66-6.29-5.928-6.29-.409 0-.741.352-.741.786 0 .434.332.786.741.786 2.452 0 4.446 2.116 4.446 4.718v17.299c0 2.602 1.995 4.718 4.447 4.718s4.446-2.116 4.446-4.718V23.983c0-.434-.332-.786-.741-.786z"></path></svg>