<svg xmlns="http://www.w3.org/2000/svg" fill="white" width="53" height="56" viewBox="0 0 53 56"><g><mask id="charging-mask-ico" class="specification-mask-1"><path d="M52.07 9.333h-1.86V2.8c0-1.544-1.251-2.8-2.789-2.8a2.798 2.798 0 0 0-2.79 2.8v6.533h-3.719V2.8c0-1.544-1.251-2.8-2.79-2.8a2.798 2.798 0 0 0-2.789 2.8v6.533h-1.86a.932.932 0 0 0-.93.934V14c0 .515.417.933.93.933h.93v7.468a3.73 3.73 0 0 0 3.719 3.732h1.86v.934c0 1.215.78 2.241 1.86 2.628v19.772a3.73 3.73 0 0 1-3.72 3.733 3.73 3.73 0 0 1-3.718-3.733V28.933c0-3.8-2.846-6.94-6.51-7.402V7.309a3.573 3.573 0 0 0-3.561-3.576h-3.877v-2.8a.932.932 0 0 0-.93-.933H8.368a.932.932 0 0 0-.93.933v2.8H3.563A3.573 3.573 0 0 0 0 7.31v45.115A3.573 3.573 0 0 0 3.562 56h20.77a3.573 3.573 0 0 0 3.563-3.576V23.417a5.598 5.598 0 0 1 4.649 5.516v20.534c0 3.088 2.502 5.6 5.579 5.6s5.579-2.512 5.579-5.6V29.695a2.794 2.794 0 0 0 1.86-2.628v-.934h1.86a3.73 3.73 0 0 0 3.718-3.732v-7.468h.93c.513 0 .93-.418.93-.933v-3.733a.932.932 0 0 0-.93-.934zm-29.966 19.26L9.086 44.46a.928.928 0 0 1-1.143.236.935.935 0 0 1-.473-1.07L10.878 30.8H6.51a.935.935 0 0 1-.718-1.526l13.017-15.867a.926.926 0 0 1 1.143-.236c.389.2.586.646.473 1.07l-3.407 12.827h4.368c.36 0 .687.208.84.534a.935.935 0 0 1-.122.992zm21.598-1.526a.933.933 0 0 1-.93.933.933.933 0 0 1-.93-.933v-.934h1.86v.934zm7.438-14H34.403V11.2H51.142v1.867z"></path><path d="M10.17 39.773l9.19-10.978h-3.666a.95.95 0 0 1-.749-.363.919.919 0 0 1-.163-.805l2.658-9.809-9.189 10.977h3.666a.95.95 0 0 1 .749.364c.178.23.238.526.163.805l-2.658 9.809z"></path></mask><rect x="0" y="0" width="100%" height="100%" mask="url(#charging-mask-ico)"></rect></g><g><mask id="charging-mask-ico-2" class="specification-mask-2"><path d="M52.07 9.333h-1.86V2.8c0-1.544-1.251-2.8-2.789-2.8a2.798 2.798 0 0 0-2.79 2.8v6.533h-3.719V2.8c0-1.544-1.251-2.8-2.79-2.8a2.798 2.798 0 0 0-2.789 2.8v6.533h-1.86a.932.932 0 0 0-.93.934V14c0 .515.417.933.93.933h.93v7.468a3.73 3.73 0 0 0 3.719 3.732h1.86v.934c0 1.215.78 2.241 1.86 2.628v19.772a3.73 3.73 0 0 1-3.72 3.733 3.73 3.73 0 0 1-3.718-3.733V28.933c0-3.8-2.846-6.94-6.51-7.402V7.309a3.573 3.573 0 0 0-3.561-3.576h-3.877v-2.8a.932.932 0 0 0-.93-.933H8.368a.932.932 0 0 0-.93.933v2.8H3.563A3.573 3.573 0 0 0 0 7.31v45.115A3.573 3.573 0 0 0 3.562 56h20.77a3.573 3.573 0 0 0 3.563-3.576V23.417a5.598 5.598 0 0 1 4.649 5.516v20.534c0 3.088 2.502 5.6 5.579 5.6s5.579-2.512 5.579-5.6V29.695a2.794 2.794 0 0 0 1.86-2.628v-.934h1.86a3.73 3.73 0 0 0 3.718-3.732v-7.468h.93c.513 0 .93-.418.93-.933v-3.733a.932.932 0 0 0-.93-.934zm-29.966 19.26L9.086 44.46a.928.928 0 0 1-1.143.236.935.935 0 0 1-.473-1.07L10.878 30.8H6.51a.935.935 0 0 1-.718-1.526l13.017-15.867a.926.926 0 0 1 1.143-.236c.389.2.586.646.473 1.07l-3.407 12.827h4.368c.36 0 .687.208.84.534a.935.935 0 0 1-.122.992zm21.598-1.526a.933.933 0 0 1-.93.933.933.933 0 0 1-.93-.933v-.934h1.86v.934zm7.438-14H34.403V11.2H51.142v1.867z"></path><path d="M10.17 39.773l9.19-10.978h-3.666a.95.95 0 0 1-.749-.363.919.919 0 0 1-.163-.805l2.658-9.809-9.189 10.977h3.666a.95.95 0 0 1 .749.364c.178.23.238.526.163.805l-2.658 9.809z"></path></mask><rect class="specification-mask-ico-rect specification-mask-anim-up" x="0" y="0" width="100%" height="100%" mask="url(#charging-mask-ico-2)"></rect></g></svg>