<svg fill="gray" xmlns="http://www.w3.org/2000/svg" viewBox="0 0 44 50" id="icon-shield"><path d="M42.874 6.876h-4.05c-6.049 0-11.691-2.269-16.315-6.574L22.418.22a.824.824 0 0 0-1.123.002L21.203.3C16.58 4.606 10.938 6.876 4.888 6.876H.84a.82.82 0 0 0-.806.836v14.952c0 6.694 1.801 12.069 5.523 16.433 3.114 3.65 7.476 6.679 14.596 10.13l1.347.654a.82.82 0 0 0 .717 0l1.35-.655c7.12-3.45 11.478-6.48 14.591-10.13 3.722-4.363 5.523-9.738 5.523-16.432V7.712a.82.82 0 0 0-.806-.836zm-.84 15.788c0 6.373-1.625 11.255-5.13 15.365-2.957 3.465-7.159 6.371-14.061 9.716l-.989.48-.99-.48c-6.9-3.345-11.097-6.25-14.054-9.715-3.506-4.11-5.13-8.993-5.13-15.365V8.522h3.208c6.27 0 12.123-2.277 16.969-6.594 4.845 4.316 10.699 6.594 16.968 6.594h3.208v14.142z"></path><path d="M37.174 11.609h-2.95c-4.352 0-8.411-1.656-11.74-4.755l-.067-.071a.824.824 0 0 0-1.121-.004l-.067.077c-3.328 3.099-7.388 4.753-11.74 4.753H6.54c-.455 0-.844.332-.844.787v10.897c0 10.316 5.672 15.133 14.808 19.56l.988.477c.228.11.495.11.723 0l.994-.477c9.137-4.427 14.81-9.244 14.81-19.56V12.396c0-.455-.39-.787-.844-.787zm-.802 11.684c0 9.499-5.097 13.822-13.881 18.08l-.63.302-.637-.303c-8.784-4.257-13.882-8.58-13.882-18.079V13.255H9.49c4.562 0 8.824-1.634 12.368-4.732 3.543 3.098 7.805 4.732 12.367 4.732h2.148v10.038z"></path><path d="M30.972 17.188L19.02 29.133l-6.242-6.238-1.06 1.059 7.302 7.296 13.01-13.004z"></path></svg>