<svg xmlns="http://www.w3.org/2000/svg" width="77" height="58" fill="white" viewBox="0 0 77 58"><g><mask id="range-mask-ico" class="specification-mask-1"><path d="M39.944 0l.196 4.79h-3.16L37.176 0h-7.692L14.022 57.733h20.794l.196-4.79h7.096l.196 4.79h20.794L47.636 0h-7.692zm-3.258 11.962h3.747l.545 13.318h-4.836l.544-13.318zM35.305 45.77l.544-13.319h5.422l.544 13.319h-6.51z"></path><path d="M51.753 0h-2.677c6.677 19.244 13.352 38.488 20.028 57.733h7.237C68.146 38.488 59.95 19.244 51.753 0zM24.588 0C16.392 19.244 8.195 38.488 0 57.733h7.237L27.265 0h-2.677z"></path></mask><rect x="0" y="0" width="100%" height="100%" mask="url(#range-mask-ico)"></rect></g><g><mask id="range-mask-ico-2" class="specification-mask-2"><path d="M39.944 0l.196 4.79h-3.16L37.176 0h-7.692L14.022 57.733h20.794l.196-4.79h7.096l.196 4.79h20.794L47.636 0h-7.692zm-3.258 11.962h3.747l.545 13.318h-4.836l.544-13.318zM35.305 45.77l.544-13.319h5.422l.544 13.319h-6.51z"></path><path d="M51.753 0h-2.677c6.677 19.244 13.352 38.488 20.028 57.733h7.237C68.146 38.488 59.95 19.244 51.753 0zM24.588 0C16.392 19.244 8.195 38.488 0 57.733h7.237L27.265 0h-2.677z"></path></mask><rect class="specification-mask-ico-rect specification-mask-anim-up" x="0" y="0" width="100%" height="100%" mask="url(#range-mask-ico-2)"></rect></g></svg>