<svg xmlns="http://www.w3.org/2000/svg" width="108" height="55" viewBox="0 0 108 55"><g><mask id="top-speed-mask-ico" class="specification-mask-1"><defs><path id="a" d="M.174.046h12.55v18.928H.174z"></path><path id="c" d="M0 .023h13.192V20.05H0z"></path></defs><g fill="none" fill-rule="evenodd"><path fill="#5E6163" d="M103.216 33.386A54.191 54.191 0 0 0 92.88 17.192L85.82 24.32a44.087 44.087 0 0 1 8.177 12.922l9.22-3.856z"></path><g transform="translate(94.518 34.883)"><mask id="b" fill="#fff"><use xlink:href="#a"></use></mask><path fill="#444749" d="M12.724 18.974A55.66 55.66 0 0 0 9.261.046L.174 3.926a45.299 45.299 0 0 1 2.72 15.048h9.83z" mask="url(#b)"></path></g><path fill="#8C8D8F" d="M71.904 14.12a44.004 44.004 0 0 1 12.608 8.97l7.107-7.12A54.07 54.07 0 0 0 75.754 4.808l-3.85 9.313zM55.667 10.149a43.76 43.76 0 0 1 15.283 3.505l3.853-9.288A53.8 53.8 0 0 0 55.667.091v10.058z"></path><path fill="#BDBDBD" d="M38.573 13.064a41.531 41.531 0 0 1 15.355-2.708V.094a51.054 51.054 0 0 0-19.136 3.48l3.781 9.49zM23.817 21.91a43.098 43.098 0 0 1 13.294-8.804l-3.788-9.477C27.16 6.227 21.572 9.99 16.816 14.655l7.001 7.255z"></path><path fill="#F1F1F1" d="M13.42 36.652a44.454 44.454 0 0 1 9.195-13.454l-7.16-7.185A54.628 54.628 0 0 0 4.059 32.762l9.36 3.89z"></path><g transform="translate(0 34.293)"><mask id="d" fill="#fff"><use xlink:href="#c"></use></mask><path fill="#FFF" d="M10.048 20.05a45.052 45.052 0 0 1 3.144-16.118L3.907.023A55.378 55.378 0 0 0 0 20.05h10.048z" mask="url(#d)"></path></g><path fill="#006" d="M55.087 44.908c2.242 0 4.06 1.848 4.06 4.128 0 2.28-1.818 4.128-4.06 4.128-2.241 0-4.059-1.848-4.059-4.128 0-2.28 1.818-4.128 4.06-4.128"></path><g fill="#F1F1F1"><path d="M56.77 47.914a2.623 2.623 0 0 1-1.13 3.58 2.73 2.73 0 0 1-3.636-1.16 2.623 2.623 0 0 1 1.13-3.58 2.731 2.731 0 0 1 3.636 1.16M55.815 45.367l24.88-9.588-22.362 14.347c.083-.843-.103-1.8-.584-2.71-.48-.909-1.172-1.61-1.923-2.029l-.01-.02z"></path></g></g></mask><rect x="0" y="0" width="100%" height="100%" mask="url(#top-speed-mask-ico)"></rect></g><g><mask id="top-speed-mask-ico-2" class="specification-mask-2"><defs><path id="a" d="M.174.046h12.55v18.928H.174z"></path><path id="c" d="M0 .023h13.192V20.05H0z"></path></defs><g fill="none" fill-rule="evenodd"><path fill="#5E6163" d="M103.216 33.386A54.191 54.191 0 0 0 92.88 17.192L85.82 24.32a44.087 44.087 0 0 1 8.177 12.922l9.22-3.856z"></path><g transform="translate(94.518 34.883)"><mask id="b" fill="#fff"><use xlink:href="#a"></use></mask><path fill="#444749" d="M12.724 18.974A55.66 55.66 0 0 0 9.261.046L.174 3.926a45.299 45.299 0 0 1 2.72 15.048h9.83z" mask="url(#b)"></path></g><path fill="#8C8D8F" d="M71.904 14.12a44.004 44.004 0 0 1 12.608 8.97l7.107-7.12A54.07 54.07 0 0 0 75.754 4.808l-3.85 9.313zM55.667 10.149a43.76 43.76 0 0 1 15.283 3.505l3.853-9.288A53.8 53.8 0 0 0 55.667.091v10.058z"></path><path fill="#BDBDBD" d="M38.573 13.064a41.531 41.531 0 0 1 15.355-2.708V.094a51.054 51.054 0 0 0-19.136 3.48l3.781 9.49zM23.817 21.91a43.098 43.098 0 0 1 13.294-8.804l-3.788-9.477C27.16 6.227 21.572 9.99 16.816 14.655l7.001 7.255z"></path><path fill="#F1F1F1" d="M13.42 36.652a44.454 44.454 0 0 1 9.195-13.454l-7.16-7.185A54.628 54.628 0 0 0 4.059 32.762l9.36 3.89z"></path><g transform="translate(0 34.293)"><mask id="d" fill="#fff"><use xlink:href="#c"></use></mask><path fill="#FFF" d="M10.048 20.05a45.052 45.052 0 0 1 3.144-16.118L3.907.023A55.378 55.378 0 0 0 0 20.05h10.048z" mask="url(#d)"></path></g><path fill="#006" d="M55.087 44.908c2.242 0 4.06 1.848 4.06 4.128 0 2.28-1.818 4.128-4.06 4.128-2.241 0-4.059-1.848-4.059-4.128 0-2.28 1.818-4.128 4.06-4.128"></path><g fill="#F1F1F1"><path d="M56.77 47.914a2.623 2.623 0 0 1-1.13 3.58 2.73 2.73 0 0 1-3.636-1.16 2.623 2.623 0 0 1 1.13-3.58 2.731 2.731 0 0 1 3.636 1.16M55.815 45.367l24.88-9.588-22.362 14.347c.083-.843-.103-1.8-.584-2.71-.48-.909-1.172-1.61-1.923-2.029l-.01-.02z"></path></g></g></mask><rect class="specification-mask-ico-rect specification-mask-anim-right" x="0" y="0" width="100%" height="100%" mask="url(#top-speed-mask-ico-2)"></rect></g></svg>