<svg xmlns="http://www.w3.org/2000/svg" fill="white" width="69" height="56" viewBox="0 0 69 56"><g><mask id="weight-mask-ico" class="specification-mask-1"><path d="M68.711 51.268l-10.804-33.43a3.579 3.579 0 0 0-3.405-2.479H43.1a10.064 10.064 0 0 0 1.467-5.226C44.567 4.546 40.025 0 34.444 0 28.862 0 24.32 4.546 24.32 10.133c0 1.913.542 3.698 1.466 5.226H14.385a3.579 3.579 0 0 0-3.404 2.48L.176 51.268c-.747 2.313.976 4.684 3.405 4.684h61.726c2.429 0 4.152-2.371 3.404-4.685zm-39.62-41.135a5.36 5.36 0 0 1 5.353-5.357 5.36 5.36 0 0 1 5.352 5.357 5.36 5.36 0 0 1-4.202 5.226h-2.3a5.36 5.36 0 0 1-4.202-5.226zm.62 34.185l-3.092-5.944h-1.473v5.944h-3.583V29.664h3.583v5.657h1.473l3.031-5.657h3.85l-3.953 7.009v.042l4.178 7.603h-4.013zm18.844 0h-2.989v-.41c0-.308.02-.615.02-.615h-.04s-1.414 1.27-3.85 1.27c-3.747 0-7.186-2.807-7.186-7.603 0-4.262 3.214-7.542 7.679-7.542 3.746 0 5.63 1.947 5.63 1.947l-1.72 2.685s-1.495-1.352-3.563-1.352c-3.071 0-4.32 1.967-4.32 4.139 0 2.788 1.924 4.447 4.198 4.447 1.719 0 2.967-1.065 2.967-1.065v-1.128h-2.067v-3.054h5.241v8.281z"></path></mask><rect x="0" y="0" width="100%" height="100%" mask="url(#weight-mask-ico)"></rect></g><g><mask id="weight-mask-ico-2" class="specification-mask-2"><path d="M68.711 51.268l-10.804-33.43a3.579 3.579 0 0 0-3.405-2.479H43.1a10.064 10.064 0 0 0 1.467-5.226C44.567 4.546 40.025 0 34.444 0 28.862 0 24.32 4.546 24.32 10.133c0 1.913.542 3.698 1.466 5.226H14.385a3.579 3.579 0 0 0-3.404 2.48L.176 51.268c-.747 2.313.976 4.684 3.405 4.684h61.726c2.429 0 4.152-2.371 3.404-4.685zm-39.62-41.135a5.36 5.36 0 0 1 5.353-5.357 5.36 5.36 0 0 1 5.352 5.357 5.36 5.36 0 0 1-4.202 5.226h-2.3a5.36 5.36 0 0 1-4.202-5.226zm.62 34.185l-3.092-5.944h-1.473v5.944h-3.583V29.664h3.583v5.657h1.473l3.031-5.657h3.85l-3.953 7.009v.042l4.178 7.603h-4.013zm18.844 0h-2.989v-.41c0-.308.02-.615.02-.615h-.04s-1.414 1.27-3.85 1.27c-3.747 0-7.186-2.807-7.186-7.603 0-4.262 3.214-7.542 7.679-7.542 3.746 0 5.63 1.947 5.63 1.947l-1.72 2.685s-1.495-1.352-3.563-1.352c-3.071 0-4.32 1.967-4.32 4.139 0 2.788 1.924 4.447 4.198 4.447 1.719 0 2.967-1.065 2.967-1.065v-1.128h-2.067v-3.054h5.241v8.281z"></path></mask><rect class="specification-mask-ico-rect specification-mask-anim-down" x="0" y="0" width="100%" height="100%" mask="url(#weight-mask-ico-2)"></rect></g></svg>